<svg xmlns="http://www.w3.org/2000/svg" width="43.2" height="45" viewBox="0 0 43.2 45">
  <g id="Gruppe_114" data-name="Gruppe 114" transform="translate(-256.8 -306)">
    <path id="Icon_ionic-md-add" data-name="Icon ionic-md-add" d="M28.778,19.233H19.233v9.546H16.3V19.233H6.75V16.3H16.3V6.75h2.937V16.3h9.546Z" transform="translate(250.05 322.222)" fill="#fde6a7"/>
    <path id="Icon_material-event" data-name="Icon material-event" d="M25.5,18H18v7.5h7.5ZM24,1.5v3H12v-3H9v3H7.5a2.986,2.986,0,0,0-2.985,3L4.5,28.5a3,3,0,0,0,3,3h21a3.009,3.009,0,0,0,3-3V7.5a3.009,3.009,0,0,0-3-3H27v-3Zm4.5,27H7.5V12h21Z" transform="translate(268.5 304.5)" fill="#fde6a7"/>
  </g>
</svg>
