<svg xmlns="http://www.w3.org/2000/svg" width="57.123" height="45.001" viewBox="0 0 57.123 45.001">
  <g id="Gruppe_115" data-name="Gruppe 115" transform="translate(-197.8 -387.087)">
    <path id="Icon_ionic-md-add" data-name="Icon ionic-md-add" d="M28.778,19.233H19.233v9.546H16.3V19.233H6.75V16.3H16.3V6.75h2.937V16.3h9.546Z" transform="translate(191.05 403.31)" fill="#fde6a7"/>
    <path id="Icon_awesome-list" data-name="Icon awesome-list" d="M5.769,26.452H1.154A1.154,1.154,0,0,0,0,27.606v4.615a1.154,1.154,0,0,0,1.154,1.154H5.769a1.154,1.154,0,0,0,1.154-1.154V27.606A1.154,1.154,0,0,0,5.769,26.452Zm0-23.077H1.154A1.154,1.154,0,0,0,0,4.529V9.144A1.154,1.154,0,0,0,1.154,10.3H5.769A1.154,1.154,0,0,0,6.923,9.144V4.529A1.154,1.154,0,0,0,5.769,3.375Zm0,11.538H1.154A1.154,1.154,0,0,0,0,16.067v4.615a1.154,1.154,0,0,0,1.154,1.154H5.769a1.154,1.154,0,0,0,1.154-1.154V16.067A1.154,1.154,0,0,0,5.769,14.913Zm30,12.692H12.692a1.154,1.154,0,0,0-1.154,1.154v2.308a1.154,1.154,0,0,0,1.154,1.154H35.769a1.154,1.154,0,0,0,1.154-1.154V28.76A1.154,1.154,0,0,0,35.769,27.606Zm0-23.077H12.692a1.154,1.154,0,0,0-1.154,1.154V7.99a1.154,1.154,0,0,0,1.154,1.154H35.769A1.154,1.154,0,0,0,36.923,7.99V5.683A1.154,1.154,0,0,0,35.769,4.529Zm0,11.538H12.692a1.154,1.154,0,0,0-1.154,1.154v2.308a1.154,1.154,0,0,0,1.154,1.154H35.769a1.154,1.154,0,0,0,1.154-1.154V17.221A1.154,1.154,0,0,0,35.769,16.067Z" transform="translate(218 383.712)" fill="#fde6a7"/>
  </g>
</svg>
