<svg xmlns="http://www.w3.org/2000/svg" width="28.875" height="33" viewBox="0 0 28.875 33">
  <path id="Icon_awesome-copy" data-name="Icon awesome-copy" d="M20.625,28.875v2.578A1.547,1.547,0,0,1,19.078,33H1.547A1.547,1.547,0,0,1,0,31.453V7.734A1.547,1.547,0,0,1,1.547,6.188H6.188V25.266A3.613,3.613,0,0,0,9.8,28.875Zm0-22.172V0H9.8A1.547,1.547,0,0,0,8.25,1.547V25.266A1.547,1.547,0,0,0,9.8,26.813H27.328a1.547,1.547,0,0,0,1.547-1.547V8.25h-6.7A1.551,1.551,0,0,1,20.625,6.7Zm7.8-2L24.172.453A1.547,1.547,0,0,0,23.078,0h-.391V6.188h6.188V5.8A1.547,1.547,0,0,0,28.422,4.7Z" fill="#fde6a7"/>
</svg>
