<svg xmlns="http://www.w3.org/2000/svg" width="49.5" height="33" viewBox="0 0 49.5 33">
  <path id="Icon_awesome-eye" data-name="Icon awesome-eye" d="M49.2,19.745A27.563,27.563,0,0,0,24.75,4.5,27.568,27.568,0,0,0,.3,19.746a2.78,2.78,0,0,0,0,2.509A27.563,27.563,0,0,0,24.75,37.5,27.568,27.568,0,0,0,49.2,22.254,2.78,2.78,0,0,0,49.2,19.745ZM24.75,33.375A12.375,12.375,0,1,1,37.125,21,12.375,12.375,0,0,1,24.75,33.375Zm0-20.625a8.191,8.191,0,0,0-2.175.326,4.112,4.112,0,0,1-5.749,5.749A8.231,8.231,0,1,0,24.75,12.75Z" transform="translate(0 -4.5)" fill="#fde6a7"/>
</svg>
