<svg xmlns="http://www.w3.org/2000/svg" width="41.25" height="33" viewBox="0 0 41.25 33">
  <path id="Icon_awesome-eye-slash" data-name="Icon awesome-eye-slash" d="M20.625,25.781a9.247,9.247,0,0,1-9.21-8.579L4.653,11.977a21.481,21.481,0,0,0-2.367,3.583,2.085,2.085,0,0,0,0,1.881A20.672,20.672,0,0,0,20.625,28.875a20.02,20.02,0,0,0,5.02-.674L22.3,25.613a9.29,9.29,0,0,1-1.676.168Zm20.226,3.745-7.125-5.507a21.35,21.35,0,0,0,5.237-6.579,2.085,2.085,0,0,0,0-1.881A20.672,20.672,0,0,0,20.625,4.125a19.861,19.861,0,0,0-9.5,2.43L2.93.217A1.031,1.031,0,0,0,1.482.4L.217,2.027A1.031,1.031,0,0,0,.4,3.474L38.319,32.782a1.031,1.031,0,0,0,1.448-.181l1.266-1.629a1.031,1.031,0,0,0-.182-1.447ZM29.01,20.373l-2.533-1.958a6.107,6.107,0,0,0-7.484-7.859,3.071,3.071,0,0,1,.6,1.818,3.006,3.006,0,0,1-.1.645L14.75,9.353a9.172,9.172,0,0,1,5.875-2.134A9.276,9.276,0,0,1,29.906,16.5a9.061,9.061,0,0,1-.9,3.874Z" transform="translate(0 0)" fill="#fde6a7"/>
</svg>
