<svg xmlns="http://www.w3.org/2000/svg" width="52.923" height="43" viewBox="0 0 52.923 43">
  <path id="Icon_awesome-list" data-name="Icon awesome-list" d="M8.269,36.452H1.654A1.654,1.654,0,0,0,0,38.106v6.615a1.654,1.654,0,0,0,1.654,1.654H8.269a1.654,1.654,0,0,0,1.654-1.654V38.106A1.654,1.654,0,0,0,8.269,36.452Zm0-33.077H1.654A1.654,1.654,0,0,0,0,5.029v6.615A1.654,1.654,0,0,0,1.654,13.3H8.269a1.654,1.654,0,0,0,1.654-1.654V5.029A1.654,1.654,0,0,0,8.269,3.375Zm0,16.538H1.654A1.654,1.654,0,0,0,0,21.567v6.615a1.654,1.654,0,0,0,1.654,1.654H8.269a1.654,1.654,0,0,0,1.654-1.654V21.567A1.654,1.654,0,0,0,8.269,19.913Zm43,18.192H18.192a1.654,1.654,0,0,0-1.654,1.654v3.308a1.654,1.654,0,0,0,1.654,1.654H51.269a1.654,1.654,0,0,0,1.654-1.654V39.76A1.654,1.654,0,0,0,51.269,38.106Zm0-33.077H18.192a1.654,1.654,0,0,0-1.654,1.654V9.99a1.654,1.654,0,0,0,1.654,1.654H51.269A1.654,1.654,0,0,0,52.923,9.99V6.683A1.654,1.654,0,0,0,51.269,5.029Zm0,16.538H18.192a1.654,1.654,0,0,0-1.654,1.654v3.308a1.654,1.654,0,0,0,1.654,1.654H51.269a1.654,1.654,0,0,0,1.654-1.654V23.221A1.654,1.654,0,0,0,51.269,21.567Z" transform="translate(0 -3.375)" fill="#fde6a7"/>
</svg>
