<svg xmlns="http://www.w3.org/2000/svg" width="37.657" height="33" viewBox="0 0 37.657 33">
  <g id="Gruppe_121" data-name="Gruppe 121" transform="translate(-30 -384.23)">
    <g id="Gruppe_117" data-name="Gruppe 117" transform="translate(30 410.989)">
      <path id="Icon_awesome-list" data-name="Icon awesome-list" d="M41.672,21.144H15.377a1.437,1.437,0,0,0-1.315,1.534v3.068a1.437,1.437,0,0,0,1.315,1.534H41.672a1.437,1.437,0,0,0,1.315-1.534V22.678A1.437,1.437,0,0,0,41.672,21.144Z" transform="translate(-5.329 -21.039)" fill="#fde6a7"/>
      <path id="Icon_awesome-list-2" data-name="Icon awesome-list" d="M5.022,19.528H1a1.014,1.014,0,0,0-1,1.022v4.09a1.014,1.014,0,0,0,1,1.022H5.022a1.014,1.014,0,0,0,1-1.022v-4.09A1.014,1.014,0,0,0,5.022,19.528Z" transform="translate(0 -19.528)" fill="#fde6a7"/>
    </g>
    <g id="Gruppe_118" data-name="Gruppe 118" transform="translate(30 393.217)">
      <path id="Icon_awesome-list-3" data-name="Icon awesome-list" d="M41.672,21.144H15.377a1.437,1.437,0,0,0-1.315,1.534v3.068a1.437,1.437,0,0,0,1.315,1.534H41.672a1.437,1.437,0,0,0,1.315-1.534V22.678A1.437,1.437,0,0,0,41.672,21.144Z" transform="translate(-5.329 -21.039)" fill="#fde6a7"/>
      <path id="Icon_awesome-list-4" data-name="Icon awesome-list" d="M5.022,19.528H1a1.014,1.014,0,0,0-1,1.022v4.09a1.014,1.014,0,0,0,1,1.022H5.022a1.014,1.014,0,0,0,1-1.022v-4.09A1.014,1.014,0,0,0,5.022,19.528Z" transform="translate(0 -19.528)" fill="#fde6a7"/>
    </g>
    <g id="Gruppe_119" data-name="Gruppe 119" transform="translate(30 384.23)">
      <path id="Icon_awesome-list-5" data-name="Icon awesome-list" d="M41.672,21.144H15.377a1.437,1.437,0,0,0-1.315,1.534v3.068a1.437,1.437,0,0,0,1.315,1.534H41.672a1.437,1.437,0,0,0,1.315-1.534V22.678A1.437,1.437,0,0,0,41.672,21.144Z" transform="translate(-5.329 -21.039)" fill="#fde6a7"/>
      <path id="Icon_awesome-list-6" data-name="Icon awesome-list" d="M5.022,19.528H1a1.014,1.014,0,0,0-1,1.022v4.09a1.014,1.014,0,0,0,1,1.022H5.022a1.014,1.014,0,0,0,1-1.022v-4.09A1.014,1.014,0,0,0,5.022,19.528Z" transform="translate(0 -19.528)" fill="#fde6a7"/>
    </g>
    <g id="Gruppe_122" data-name="Gruppe 122" transform="translate(30 402.107)">
      <path id="Icon_awesome-list-7" data-name="Icon awesome-list" d="M41.672,21.144H15.377a1.437,1.437,0,0,0-1.315,1.534v3.068a1.437,1.437,0,0,0,1.315,1.534H41.672a1.437,1.437,0,0,0,1.315-1.534V22.678A1.437,1.437,0,0,0,41.672,21.144Z" transform="translate(-5.329 -21.039)" fill="#fde6a7"/>
      <path id="Icon_awesome-list-8" data-name="Icon awesome-list" d="M5.022,19.528H1a1.014,1.014,0,0,0-1,1.022v4.09a1.014,1.014,0,0,0,1,1.022H5.022a1.014,1.014,0,0,0,1-1.022v-4.09A1.014,1.014,0,0,0,5.022,19.528Z" transform="translate(0 -19.528)" fill="#fde6a7"/>
    </g>
  </g>
</svg>
