<svg xmlns="http://www.w3.org/2000/svg" width="45" height="45" viewBox="0 0 45 45">
  <path id="Icon_awesome-save" data-name="Icon awesome-save" d="M43.588,12.088,35.162,3.662A4.821,4.821,0,0,0,31.753,2.25H4.821A4.821,4.821,0,0,0,0,7.071V42.429A4.821,4.821,0,0,0,4.821,47.25H40.179A4.821,4.821,0,0,0,45,42.429V15.5a4.821,4.821,0,0,0-1.412-3.409ZM22.5,40.821a6.429,6.429,0,1,1,6.429-6.429A6.429,6.429,0,0,1,22.5,40.821Zm9.643-30.588v10.1a1.205,1.205,0,0,1-1.205,1.205H7.634A1.205,1.205,0,0,1,6.429,20.33V9.884A1.205,1.205,0,0,1,7.634,8.679H30.588a1.2,1.2,0,0,1,.852.353l.35.35a1.2,1.2,0,0,1,.353.852Z" transform="translate(0 -2.25)" fill="#733636"/>
</svg>
