<svg xmlns="http://www.w3.org/2000/svg" width="33" height="33" viewBox="0 0 33 33">
  <path id="Icon_awesome-save" data-name="Icon awesome-save" d="M31.964,9.464,25.786,3.286a3.536,3.536,0,0,0-2.5-1.036H3.536A3.536,3.536,0,0,0,0,5.786V31.714A3.536,3.536,0,0,0,3.536,35.25H29.464A3.536,3.536,0,0,0,33,31.714V11.965a3.536,3.536,0,0,0-1.036-2.5ZM16.5,30.536a4.714,4.714,0,1,1,4.714-4.714A4.714,4.714,0,0,1,16.5,30.536ZM23.571,8.1v7.4a.884.884,0,0,1-.884.884H5.6a.884.884,0,0,1-.884-.884V7.848A.884.884,0,0,1,5.6,6.964H22.431a.884.884,0,0,1,.625.259l.256.256a.884.884,0,0,1,.259.625Z" transform="translate(0 -2.25)" fill="#fde6a7"/>
</svg>
