<svg xmlns="http://www.w3.org/2000/svg" width="33.001" height="33" viewBox="0 0 33.001 33">
  <path id="Icon_ionic-md-settings" data-name="Icon ionic-md-settings" d="M32.406,21.525a10.319,10.319,0,0,0,.084-1.65c0-.578-.084-1.072-.084-1.65L35.95,15.5a.758.758,0,0,0,.169-1.072L32.743,8.738a.822.822,0,0,0-1.013-.33l-4.219,1.65a12.281,12.281,0,0,0-2.868-1.65l-.591-4.372a.9.9,0,0,0-.844-.66H16.458a.9.9,0,0,0-.844.66l-.675,4.372a14.289,14.289,0,0,0-2.869,1.65L7.85,8.407a.79.79,0,0,0-1.013.33L3.462,14.43A1,1,0,0,0,3.631,15.5L7.26,18.225c0,.578-.084,1.072-.084,1.65s.084,1.072.084,1.65L3.716,24.247a.758.758,0,0,0-.169,1.072l3.375,5.693a.822.822,0,0,0,1.013.33l4.219-1.65a12.28,12.28,0,0,0,2.868,1.65l.675,4.372a.818.818,0,0,0,.844.66h6.751a.9.9,0,0,0,.844-.66l.676-4.372a14.281,14.281,0,0,0,2.868-1.65l4.219,1.65a.79.79,0,0,0,1.013-.33l3.375-5.693a1,1,0,0,0-.169-1.072ZM19.833,25.65a5.776,5.776,0,1,1,0-11.55,5.776,5.776,0,1,1,0,11.55Z" transform="translate(-3.375 -3.375)" fill="#fde6a7"/>
</svg>
