<svg xmlns="http://www.w3.org/2000/svg" width="31.969" height="33" viewBox="0 0 31.969 33">
  <path id="account" d="M15.984,18.469a7.617,7.617,0,0,1-5.672-2.413,8.071,8.071,0,0,1-2.344-5.838,8.066,8.066,0,0,1,2.345-5.837,7.624,7.624,0,0,1,5.672-2.413,7.611,7.611,0,0,1,5.671,2.413A8.073,8.073,0,0,1,24,10.22a8.073,8.073,0,0,1-2.344,5.838,7.612,7.612,0,0,1-5.672,2.413Zm0,4.149a27.7,27.7,0,0,1,6.516.869,20.206,20.206,0,0,1,6.516,2.847q2.953,1.978,2.953,4.487v4.149H0V30.82q0-2.509,2.953-4.487a20.236,20.236,0,0,1,6.516-2.847,27.628,27.628,0,0,1,6.516-.869Z" transform="translate(0 -1.969)" fill="#fde6a7"/>
</svg>
