<svg xmlns="http://www.w3.org/2000/svg" width="34.719" height="33" viewBox="0 0 34.719 33">
  <path id="Icon_ionic-md-star-outline" data-name="Icon ionic-md-star-outline" d="M38.516,17.082,26.032,16.01,21.156,4.5,16.28,16.01,3.8,17.082l9.47,8.209L10.428,37.5l10.728-6.472L31.884,37.5,29.046,25.291ZM22.577,28.673l-1.421-.857-1.421.857-5.155,3.11,1.365-5.869.375-1.615-1.253-1.086-4.554-3.948,6-.515,1.651-.142.646-1.525,2.344-5.533L23.5,17.082l.646,1.525,1.651.142,6,.515-4.554,3.948L25.992,24.3l.375,1.615,1.364,5.869Z" transform="translate(-3.797 -4.5)" fill="#fde6a7"/>
</svg>
