<svg xmlns="http://www.w3.org/2000/svg" width="40.207" height="45" viewBox="0 0 40.207 45">
  <path id="Icon_awesome-trash" data-name="Icon awesome-trash" d="M39.969,2.813H27.422L26.6,1.169A2.109,2.109,0,0,0,24.706,0H14.66a2.085,2.085,0,0,0-1.881,1.169l-.826,1.644H1.406A1.406,1.406,0,0,0,0,4.219V7.031A1.406,1.406,0,0,0,1.406,8.438H37.969a1.406,1.406,0,0,0,1.406-1.406V4.219C39.375,3.442,40.745,2.813,39.969,2.813ZM4.676,41.045A4.219,4.219,0,0,0,8.886,45h21.6a4.219,4.219,0,0,0,4.21-3.955l1.863-29.8H2.812Z" transform="translate(0 0)" fill="#6f1d1b"/>
</svg>
