<svg xmlns="http://www.w3.org/2000/svg" width="29.485" height="33" viewBox="0 0 29.485 33">
  <path id="Icon_awesome-trash" data-name="Icon awesome-trash" d="M29.31,2.062h-9.2L19.5.857A1.547,1.547,0,0,0,18.118,0H10.751A1.529,1.529,0,0,0,9.371.857L8.766,2.062H1.031A1.031,1.031,0,0,0,0,3.094V5.156A1.031,1.031,0,0,0,1.031,6.187H27.844a1.031,1.031,0,0,0,1.031-1.031V3.094C28.875,2.524,29.88,2.062,29.31,2.062ZM3.429,30.1A3.094,3.094,0,0,0,6.516,33H22.359a3.094,3.094,0,0,0,3.087-2.9L26.812,8.25H2.062Z" transform="translate(0 0)" fill="#fde6a7"/>
</svg>
