<svg xmlns="http://www.w3.org/2000/svg" width="45.011" height="45" viewBox="0 0 45.011 45">
  <path id="Icon_ionic-ios-globe" data-name="Icon ionic-ios-globe" d="M25.875,3.375H25.8a22.5,22.5,0,0,0,.011,45h.076a22.5,22.5,0,1,0-.011-45ZM45.368,24.361H36.974a42.6,42.6,0,0,0-1.06-8.243,32.954,32.954,0,0,0,5.376-2.272A19.38,19.38,0,0,1,45.368,24.361Zm-21.007,0H17.675a38.449,38.449,0,0,1,.952-7.475,32.91,32.91,0,0,0,5.733.768Zm0,3.029v6.7a33.05,33.05,0,0,0-5.733.768,38.445,38.445,0,0,1-.952-7.464Zm3.029,0H34.02a38.224,38.224,0,0,1-.952,7.453,32.289,32.289,0,0,0-5.679-.757Zm0-3.029V17.654a33.051,33.051,0,0,0,5.679-.757,38.337,38.337,0,0,1,.952,7.464ZM39.224,11.607a30.051,30.051,0,0,1-4.111,1.677,22.335,22.335,0,0,0-2.867-5.9A19.575,19.575,0,0,1,39.224,11.607Zm-6.966,2.456a30.444,30.444,0,0,1-4.868.649V6.772C29.228,7.767,31.024,10.439,32.257,14.063Zm-7.9-7.334V14.7a29.918,29.918,0,0,1-4.922-.66C20.694,10.385,22.511,7.713,24.361,6.728Zm-4.933.692a22.511,22.511,0,0,0-2.845,5.852,30.727,30.727,0,0,1-4.056-1.666A19.282,19.282,0,0,1,19.428,7.421ZM10.46,13.857a32.3,32.3,0,0,0,5.322,2.25,40.882,40.882,0,0,0-1.06,8.243H6.393A19.28,19.28,0,0,1,10.46,13.857ZM6.382,27.389h8.329a42.49,42.49,0,0,0,1.06,8.243,34.272,34.272,0,0,0-5.322,2.25A19.383,19.383,0,0,1,6.382,27.389Zm6.133,12.754a30.274,30.274,0,0,1,4.067-1.666,22.591,22.591,0,0,0,2.845,5.863A19.761,19.761,0,0,1,12.516,40.143ZM19.439,37.7a30.075,30.075,0,0,1,4.922-.66v7.983C22.5,44.037,20.694,41.355,19.439,37.7Zm7.951,7.28V37.028a30.443,30.443,0,0,1,4.868.649C31.024,41.311,29.228,43.983,27.389,44.978Zm4.868-.617a22.335,22.335,0,0,0,2.867-5.9,29.556,29.556,0,0,1,4.111,1.687A19.8,19.8,0,0,1,32.257,44.362Zm9.032-6.469a32.953,32.953,0,0,0-5.376-2.272,42.377,42.377,0,0,0,1.06-8.232h8.394A19.3,19.3,0,0,1,41.29,37.893Z" transform="translate(-3.375 -3.375)" fill="#fde6a7"/>
</svg>
