<svg xmlns="http://www.w3.org/2000/svg" width="33.008" height="33" viewBox="0 0 33.008 33">
  <path id="Icon_ionic-ios-globe" data-name="Icon ionic-ios-globe" d="M19.875,3.375h-.056a16.5,16.5,0,0,0,.008,33h.056a16.5,16.5,0,1,0-.008-33ZM34.17,18.764H28.014a31.239,31.239,0,0,0-.777-6.045,24.166,24.166,0,0,0,3.943-1.666A14.212,14.212,0,0,1,34.17,18.764Zm-15.405,0h-4.9a28.2,28.2,0,0,1,.7-5.481,24.134,24.134,0,0,0,4.2.563Zm0,2.221V25.9a24.237,24.237,0,0,0-4.2.563,28.193,28.193,0,0,1-.7-5.474Zm2.221,0h4.863a28.031,28.031,0,0,1-.7,5.466,23.678,23.678,0,0,0-4.165-.555Zm0-2.221V13.846a24.237,24.237,0,0,0,4.165-.555,28.114,28.114,0,0,1,.7,5.474Zm8.678-9.353a22.037,22.037,0,0,1-3.014,1.23,16.379,16.379,0,0,0-2.1-4.323A14.355,14.355,0,0,1,29.664,9.412Zm-5.109,1.8a22.325,22.325,0,0,1-3.57.476V5.866C22.334,6.6,23.651,8.555,24.555,11.212ZM18.764,5.834v5.846a21.94,21.94,0,0,1-3.609-.484C16.075,8.515,17.408,6.556,18.764,5.834Zm-3.617.508a16.508,16.508,0,0,0-2.086,4.292,22.533,22.533,0,0,1-2.975-1.222A14.14,14.14,0,0,1,15.147,6.342Zm-6.576,4.72a23.687,23.687,0,0,0,3.9,1.65,29.98,29.98,0,0,0-.777,6.045H5.588A14.139,14.139,0,0,1,8.571,11.062ZM5.58,20.986h6.108a31.159,31.159,0,0,0,.777,6.045,25.132,25.132,0,0,0-3.9,1.65A14.214,14.214,0,0,1,5.58,20.986Zm4.5,9.353a22.2,22.2,0,0,1,2.983-1.222,16.567,16.567,0,0,0,2.086,4.3A14.492,14.492,0,0,1,10.078,30.338Zm5.077-1.793a22.055,22.055,0,0,1,3.609-.484v5.854C17.4,33.194,16.075,31.227,15.155,28.545Zm5.831,5.339V28.054a22.325,22.325,0,0,1,3.57.476C23.651,31.195,22.334,33.154,20.986,33.884Zm3.57-.452a16.379,16.379,0,0,0,2.1-4.323,21.674,21.674,0,0,1,3.014,1.237A14.52,14.52,0,0,1,24.555,33.432Zm6.624-4.744a24.166,24.166,0,0,0-3.943-1.666,31.076,31.076,0,0,0,.777-6.037H34.17A14.15,14.15,0,0,1,31.179,28.688Z" transform="translate(-3.375 -3.375)" fill="#fde6a7"/>
</svg>
